<svg width="145" height="46" viewBox="0 0 145 46" fill="none" xmlns="http://www.w3.org/2000/svg">
<rect width="145" height="46" rx="5" fill="#0A284A"/>
<path d="M129.43 14.055C129.871 13.5466 130.207 12.9562 130.42 12.3175C130.632 11.6788 130.716 11.0045 130.667 10.3333C129.313 10.4426 128.056 11.0795 127.167 12.1066C126.741 12.599 126.418 13.1717 126.218 13.7909C126.018 14.4101 125.943 15.0633 126 15.7116C126.661 15.7171 127.313 15.5706 127.908 15.2833C128.503 14.996 129.024 14.5757 129.43 14.055V14.055ZM132.37 22.735C132.378 21.841 132.613 20.9638 133.054 20.186C133.495 19.4083 134.127 18.7558 134.89 18.29C134.408 17.5961 133.772 17.024 133.031 16.6189C132.289 16.2139 131.464 15.9872 130.62 15.9566C128.8 15.77 127.12 17.0183 126.152 17.0183C125.183 17.0183 123.818 15.98 122.302 16.0033C121.31 16.036 120.344 16.3251 119.498 16.8424C118.651 17.3597 117.953 18.0875 117.472 18.955C115.418 22.525 116.947 27.8333 119 30.715C119.933 32.1266 121.1 33.725 122.64 33.6666C124.18 33.6083 124.682 32.71 126.467 32.71C128.252 32.71 128.8 33.6666 130.317 33.6316C131.833 33.5966 132.907 32.185 133.887 30.7733C134.581 29.7484 135.123 28.6285 135.497 27.4483C134.572 27.054 133.783 26.3975 133.228 25.5598C132.672 24.7222 132.374 23.7402 132.37 22.735V22.735Z" fill="white"/>
<path d="M64.9541 10.834C64.7511 10.834 64.5901 10.771 64.4711 10.645C64.3521 10.512 64.2926 10.337 64.2926 10.12C64.2926 9.889 64.3486 9.714 64.4606 9.595C64.5796 9.469 64.7441 9.406 64.9541 9.406C65.1641 9.406 65.3251 9.469 65.4371 9.595C65.5561 9.721 65.6156 9.896 65.6156 10.12C65.6156 10.337 65.5561 10.512 65.4371 10.645C65.3181 10.771 65.1571 10.834 64.9541 10.834ZM67.9991 16C67.9501 16.84 67.6841 17.47 67.2011 17.89C66.7181 18.31 66.0076 18.52 65.0696 18.52H64.5026C64.2226 18.52 63.9601 18.485 63.7151 18.415C63.4771 18.352 63.2601 18.2575 63.0641 18.1315C62.6861 17.9005 62.3956 17.575 62.1926 17.155C61.9966 16.735 61.8986 16.2555 61.8986 15.7165C61.8986 15.3105 61.9406 14.908 62.0246 14.509C62.1156 14.103 62.2416 13.732 62.4026 13.396H63.6101C63.4981 13.746 63.4106 14.1205 63.3476 14.5195C63.2846 14.9185 63.2531 15.314 63.2531 15.706C63.2531 16.231 63.3756 16.644 63.6206 16.945C63.8726 17.253 64.2121 17.407 64.6391 17.407H65.0276C65.3986 17.407 65.7031 17.344 65.9411 17.218C66.1861 17.092 66.3681 16.903 66.4871 16.651C66.6061 16.406 66.6656 16.1015 66.6656 15.7375V10.834H67.9991V14.887H69.2906C69.3256 14.887 69.3431 14.901 69.3431 14.929V15.9475C69.3431 15.9825 69.3256 16 69.2906 16H67.9991ZM69.1821 16C69.1471 16 69.1296 15.9825 69.1296 15.9475V14.929C69.1296 14.901 69.1471 14.887 69.1821 14.887H70.4106C70.3056 14.628 70.2251 14.369 70.1691 14.11C70.1131 13.851 70.0851 13.5885 70.0851 13.3225C70.0851 13.0215 70.1306 12.7065 70.2216 12.3775C70.3126 12.0485 70.4281 11.758 70.5681 11.506C70.8831 11.303 71.2226 11.149 71.5866 11.044C71.9506 10.932 72.2866 10.876 72.5946 10.876C73.0566 10.876 73.4766 10.974 73.8546 11.17C74.2256 11.373 74.5126 11.66 74.7156 12.031C74.9186 12.395 75.0201 12.8185 75.0201 13.3015C75.0201 13.5675 74.9886 13.8195 74.9256 14.0575C74.8696 14.2955 74.7856 14.516 74.6736 14.719C74.4426 15.125 74.1171 15.44 73.6971 15.664C73.2841 15.888 72.8221 16 72.3111 16H69.1821ZM71.3661 13.4065C71.3661 13.6305 71.3906 13.865 71.4396 14.11C71.4886 14.355 71.5621 14.614 71.6601 14.887H72.1746C72.4686 14.887 72.7241 14.8205 72.9411 14.6875C73.1651 14.5545 73.3401 14.369 73.4661 14.131C73.5921 13.886 73.6551 13.606 73.6551 13.291C73.6551 12.899 73.5536 12.584 73.3506 12.346C73.1476 12.101 72.8886 11.9785 72.5736 11.9785C72.3986 11.9785 72.2201 12.01 72.0381 12.073C71.8561 12.129 71.6811 12.213 71.5131 12.325C71.4641 12.493 71.4256 12.668 71.3976 12.85C71.3766 13.025 71.3661 13.2105 71.3661 13.4065ZM85.9844 16C85.9354 16.84 85.6694 17.47 85.1864 17.89C84.7034 18.31 83.9929 18.52 83.0549 18.52H82.4879C82.2149 18.52 81.9594 18.4885 81.7214 18.4255C81.4834 18.3625 81.2664 18.268 81.0704 18.142C80.6854 17.904 80.3914 17.5715 80.1884 17.1445C79.9854 16.7175 79.8839 16.224 79.8839 15.664C79.8839 15.391 79.9014 15.1145 79.9364 14.8345C79.9784 14.5545 80.0379 14.2815 80.1149 14.0155C80.1919 13.7495 80.2829 13.508 80.3879 13.291H81.5954C81.4834 13.641 81.3959 14.0225 81.3329 14.4355C81.2699 14.8485 81.2384 15.2615 81.2384 15.6745C81.2384 16.2135 81.3644 16.637 81.6164 16.945C81.8684 17.253 82.2044 17.407 82.6244 17.407H83.0129C83.3839 17.407 83.6884 17.344 83.9264 17.218C84.1714 17.092 84.3534 16.903 84.4724 16.651C84.5914 16.406 84.6509 16.1015 84.6509 15.7375V8.02H85.9844V14.887H87.2864C87.3214 14.887 87.3389 14.901 87.3389 14.929V15.9475C87.3389 15.9825 87.3214 16 87.2864 16H85.9844ZM88.5427 18.4465C88.3467 18.4465 88.1857 18.3835 88.0597 18.2575C87.9407 18.1385 87.8812 17.9635 87.8812 17.7325C87.8812 17.5085 87.9407 17.3335 88.0597 17.2075C88.1857 17.0815 88.3467 17.0185 88.5427 17.0185C88.7527 17.0185 88.9137 17.0815 89.0257 17.2075C89.1447 17.3335 89.2042 17.5085 89.2042 17.7325C89.2042 17.9635 89.1447 18.1385 89.0257 18.2575C88.9067 18.3835 88.7457 18.4465 88.5427 18.4465ZM90.3382 18.4465C90.1352 18.4465 89.9742 18.3835 89.8552 18.2575C89.7362 18.1315 89.6767 17.9565 89.6767 17.7325C89.6767 17.5155 89.7362 17.3405 89.8552 17.2075C89.9742 17.0815 90.1352 17.0185 90.3382 17.0185C90.5482 17.0185 90.7092 17.0815 90.8212 17.2075C90.9402 17.3405 90.9997 17.5155 90.9997 17.7325C90.9997 17.9495 90.9402 18.121 90.8212 18.247C90.7022 18.38 90.5412 18.4465 90.3382 18.4465ZM87.1777 16C87.1427 16 87.1252 15.9825 87.1252 15.9475V14.929C87.1252 14.901 87.1427 14.887 87.1777 14.887H88.8262V10.834H90.1807V14.887H91.7557C91.7907 14.887 91.8082 14.901 91.8082 14.929V15.9475C91.8082 15.9825 91.7907 16 91.7557 16H87.1777ZM92.8769 14.887C92.7719 14.628 92.6914 14.369 92.6354 14.11C92.5794 13.851 92.5514 13.5885 92.5514 13.3225C92.5514 13.0215 92.5969 12.7065 92.6879 12.3775C92.7789 12.0485 92.8944 11.758 93.0344 11.506C93.3494 11.303 93.6889 11.149 94.0529 11.044C94.4169 10.932 94.7529 10.876 95.0609 10.876C95.2919 10.876 95.5124 10.9005 95.7224 10.9495C95.9324 10.9985 96.1319 11.072 96.3209 11.17C96.6919 11.373 96.9789 11.66 97.1819 12.031C97.3849 12.395 97.4864 12.8185 97.4864 13.3015C97.4864 13.5045 97.4689 13.7005 97.4339 13.8895C97.4059 14.0785 97.3534 14.2605 97.2764 14.4355C97.4094 14.6035 97.5599 14.7225 97.7279 14.7925C97.9029 14.8555 98.1234 14.887 98.3894 14.887H98.4419C98.4769 14.887 98.4944 14.901 98.4944 14.929V15.9475C98.4944 15.9825 98.4769 16 98.4419 16H98.3894C98.0184 16 97.6964 15.9475 97.4234 15.8425C97.1574 15.7375 96.9054 15.559 96.6674 15.307C96.4154 15.538 96.1249 15.713 95.7959 15.832C95.4669 15.944 95.1274 16 94.7774 16H91.6484C91.6134 16 91.5959 15.9825 91.5959 15.9475V14.929C91.5959 14.901 91.6134 14.887 91.6484 14.887H92.8769ZM93.8324 13.4065C93.8324 13.6305 93.8569 13.865 93.9059 14.11C93.9549 14.355 94.0284 14.614 94.1264 14.887H94.6409C94.9349 14.887 95.1904 14.8205 95.4074 14.6875C95.6314 14.5545 95.8064 14.369 95.9324 14.131C96.0584 13.886 96.1214 13.606 96.1214 13.291C96.1214 12.899 96.0199 12.584 95.8169 12.346C95.6139 12.101 95.3549 11.9785 95.0399 11.9785C94.8649 11.9785 94.6864 12.01 94.5044 12.073C94.3224 12.129 94.1474 12.213 93.9794 12.325C93.9304 12.493 93.8919 12.668 93.8639 12.85C93.8429 13.025 93.8324 13.2105 93.8324 13.4065ZM98.334 16C98.299 16 98.2815 15.9825 98.2815 15.9475V14.929C98.2815 14.901 98.299 14.887 98.334 14.887H102.66C102.569 14.803 102.481 14.6875 102.397 14.5405C102.32 14.3865 102.25 14.201 102.187 13.984C102.124 13.767 102.068 13.522 102.019 13.249C101.97 12.99 101.907 12.773 101.83 12.598C101.76 12.416 101.676 12.2725 101.578 12.1675C101.487 12.0555 101.372 11.975 101.232 11.926C101.092 11.87 100.927 11.842 100.738 11.842C100.493 11.842 100.255 11.877 100.024 11.947C99.7935 12.01 99.552 12.1115 99.3 12.2515L98.859 11.2435C99.167 11.0615 99.4925 10.932 99.8355 10.855C100.178 10.771 100.539 10.729 100.917 10.729C101.134 10.729 101.33 10.743 101.505 10.771C101.687 10.799 101.851 10.8445 101.998 10.9075C102.229 10.9985 102.429 11.1245 102.597 11.2855C102.765 11.4465 102.905 11.653 103.017 11.905C103.129 12.157 103.213 12.4615 103.269 12.8185C103.332 13.1755 103.398 13.4905 103.468 13.7635C103.545 14.0295 103.629 14.257 103.72 14.446C103.811 14.635 103.909 14.782 104.014 14.887H104.707C104.742 14.887 104.76 14.901 104.76 14.929V15.9475C104.76 15.9825 104.742 16 104.707 16H98.334ZM106.248 9.8995C106.045 9.8995 105.88 9.84 105.754 9.721C105.635 9.595 105.576 9.4165 105.576 9.1855C105.576 8.9545 105.635 8.7795 105.754 8.6605C105.88 8.5345 106.045 8.4715 106.248 8.4715C106.451 8.4715 106.608 8.5345 106.72 8.6605C106.839 8.7865 106.899 8.9615 106.899 9.1855C106.899 9.4165 106.839 9.595 106.72 9.721C106.601 9.84 106.444 9.8995 106.248 9.8995ZM108.043 9.8995C107.833 9.8995 107.669 9.8365 107.55 9.7105C107.431 9.5845 107.371 9.4095 107.371 9.1855C107.371 8.9615 107.431 8.7865 107.55 8.6605C107.669 8.5345 107.833 8.4715 108.043 8.4715C108.246 8.4715 108.404 8.538 108.516 8.671C108.635 8.797 108.694 8.9685 108.694 9.1855C108.694 9.4025 108.635 9.5775 108.516 9.7105C108.404 9.8365 108.246 9.8995 108.043 9.8995ZM104.599 16C104.564 16 104.547 15.9825 104.547 15.9475V14.929C104.547 14.901 104.564 14.887 104.599 14.887H106.5V10.834H107.854V16H104.599Z" fill="white"/>
<path d="M14.644 28.304C14.365 28.304 14.1445 28.2185 13.9825 28.0475C13.8205 27.8675 13.7395 27.629 13.7395 27.332C13.7395 27.026 13.8205 26.7875 13.9825 26.6165C14.1445 26.4455 14.365 26.36 14.644 26.36C14.923 26.36 15.139 26.4455 15.292 26.6165C15.454 26.7875 15.535 27.026 15.535 27.332C15.535 27.638 15.454 27.8765 15.292 28.0475C15.13 28.2185 14.914 28.304 14.644 28.304ZM16.939 28.304C16.66 28.304 16.4395 28.2185 16.2775 28.0475C16.1155 27.8675 16.0345 27.629 16.0345 27.332C16.0345 27.026 16.1155 26.7875 16.2775 26.6165C16.4395 26.4455 16.66 26.36 16.939 26.36C17.218 26.36 17.434 26.4455 17.587 26.6165C17.749 26.7875 17.83 27.026 17.83 27.332C17.83 27.629 17.749 27.8675 17.587 28.0475C17.425 28.2185 17.209 28.304 16.939 28.304ZM13.6585 35C12.8305 35 12.1735 34.7615 11.6875 34.2845C11.2105 33.7985 10.972 33.1325 10.972 32.2865C10.972 32.0615 10.99 31.823 11.026 31.571C11.062 31.319 11.1115 31.076 11.1745 30.842C11.2465 30.608 11.323 30.401 11.404 30.221H13.186C13.123 30.509 13.0735 30.8015 13.0375 31.0985C13.0015 31.3955 12.9835 31.6925 12.9835 31.9895C12.9835 32.4035 13.1005 32.741 13.3345 33.002C13.5685 33.254 13.8745 33.38 14.2525 33.38H18.64V28.3175H20.6515V35H13.6585ZM26.8505 33.38C26.8955 33.38 26.918 33.398 26.918 33.434V34.9325C26.918 34.9775 26.8955 35 26.8505 35H23.1515V24.74H25.163V33.38H26.8505ZM30.9294 27.1565C30.6504 27.1565 30.4299 27.071 30.2679 26.9C30.1059 26.72 30.0249 26.4815 30.0249 26.1845C30.0249 25.8785 30.1059 25.64 30.2679 25.469C30.4299 25.298 30.6504 25.2125 30.9294 25.2125C31.2084 25.2125 31.4244 25.298 31.5774 25.469C31.7394 25.64 31.8204 25.8785 31.8204 26.1845C31.8204 26.4905 31.7394 26.729 31.5774 26.9C31.4154 27.071 31.1994 27.1565 30.9294 27.1565ZM33.2244 27.1565C32.9454 27.1565 32.7249 27.071 32.5629 26.9C32.4009 26.72 32.3199 26.4815 32.3199 26.1845C32.3199 25.8785 32.4009 25.64 32.5629 25.469C32.7249 25.298 32.9454 25.2125 33.2244 25.2125C33.5034 25.2125 33.7194 25.298 33.8724 25.469C34.0344 25.64 34.1154 25.8785 34.1154 26.1845C34.1154 26.4815 34.0344 26.72 33.8724 26.9C33.7104 27.071 33.4944 27.1565 33.2244 27.1565ZM36.0324 33.38C36.0504 33.38 36.0639 33.3845 36.0729 33.3935C36.0909 33.4025 36.0999 33.416 36.0999 33.434V34.9325C36.0999 34.9775 36.0774 35 36.0324 35H26.7174C26.6724 35 26.6499 34.9775 26.6499 34.9325V33.434C26.6499 33.398 26.6724 33.38 26.7174 33.38H28.6479C28.5039 33.209 28.3824 33.029 28.2834 32.84C28.1934 32.651 28.1214 32.453 28.0674 32.246C28.0224 32.039 27.9999 31.823 27.9999 31.598C27.9999 30.923 28.1529 30.3425 28.4589 29.8565C28.7739 29.3615 29.2239 28.9835 29.8089 28.7225C30.4029 28.4525 31.1139 28.3175 31.9419 28.3175H34.3449V33.38H36.0324ZM32.3334 33.38V29.9375H31.9824C31.5774 29.9375 31.2309 30.005 30.9429 30.14C30.6549 30.275 30.4344 30.473 30.2814 30.734C30.1374 30.995 30.0654 31.319 30.0654 31.706C30.0654 32.057 30.1374 32.3585 30.2814 32.6105C30.4254 32.8625 30.6369 33.056 30.9159 33.191C31.2039 33.317 31.5504 33.38 31.9554 33.38H32.3334ZM37.7022 38.375C37.4232 38.375 37.2027 38.285 37.0407 38.105C36.8787 37.934 36.7977 37.7 36.7977 37.403C36.7977 37.106 36.8787 36.8675 37.0407 36.6875C37.2027 36.5165 37.4232 36.431 37.7022 36.431C37.9812 36.431 38.1972 36.5165 38.3502 36.6875C38.5122 36.8585 38.5932 37.097 38.5932 37.403C38.5932 37.709 38.5122 37.9475 38.3502 38.1185C38.1882 38.2895 37.9722 38.375 37.7022 38.375ZM39.9972 38.375C39.7182 38.375 39.4977 38.285 39.3357 38.105C39.1737 37.934 39.0927 37.7 39.0927 37.403C39.0927 37.106 39.1737 36.8675 39.3357 36.6875C39.4977 36.5165 39.7182 36.431 39.9972 36.431C40.2762 36.431 40.4922 36.5165 40.6452 36.6875C40.8072 36.8675 40.8882 37.106 40.8882 37.403C40.8882 37.7 40.8072 37.934 40.6452 38.105C40.4832 38.285 40.2672 38.375 39.9972 38.375ZM35.8932 35C35.8482 35 35.8257 34.9775 35.8257 34.9325V33.434C35.8257 33.398 35.8482 33.38 35.8932 33.38H37.9857V28.3175H39.9972V33.38H42.0222C42.0672 33.38 42.0897 33.398 42.0897 33.434V34.9325C42.0897 34.9775 42.0672 35 42.0222 35H35.8932ZM44.5377 38.375C44.2587 38.375 44.0382 38.285 43.8762 38.105C43.7142 37.934 43.6332 37.7 43.6332 37.403C43.6332 37.106 43.7097 36.8675 43.8627 36.6875C44.0247 36.5165 44.2497 36.431 44.5377 36.431C44.8167 36.431 45.0327 36.5165 45.1857 36.6875C45.3477 36.8585 45.4287 37.097 45.4287 37.403C45.4287 37.7 45.3477 37.934 45.1857 38.105C45.0237 38.285 44.8077 38.375 44.5377 38.375ZM41.8917 35C41.8467 35 41.8242 34.9775 41.8242 34.9325V33.434C41.8242 33.398 41.8467 33.38 41.8917 33.38H43.5792V28.3175H45.5907V33.38H47.3457C47.3907 33.38 47.4132 33.398 47.4132 33.434V34.9325C47.4132 34.9775 47.3907 35 47.3457 35H41.8917ZM47.2047 35C47.1597 35 47.1372 34.9775 47.1372 34.9325V33.434C47.1372 33.398 47.1597 33.38 47.2047 33.38H48.7977V24.74H50.8092V30.68C51.0882 30.122 51.4077 29.6585 51.7677 29.2895C52.1277 28.9205 52.5327 28.646 52.9827 28.466C53.4327 28.277 53.9277 28.1825 54.4677 28.1825C55.5747 28.1825 56.4072 28.475 56.9652 29.06C57.5322 29.645 57.8157 30.545 57.8157 31.76V33.38H59.5707C59.6157 33.38 59.6382 33.398 59.6382 33.434V34.9325C59.6382 34.9775 59.6157 35 59.5707 35H47.2047ZM55.8042 33.38V31.7195C55.8042 31.0625 55.6512 30.581 55.3452 30.275C55.0482 29.96 54.5847 29.8025 53.9547 29.8025C53.5497 29.8025 53.1627 29.897 52.7937 30.086C52.4247 30.275 52.0737 30.5585 51.7407 30.9365C51.4167 31.3055 51.1062 31.769 50.8092 32.327V33.38H55.8042ZM61.2751 27.1565C60.9961 27.1565 60.7756 27.071 60.6136 26.9C60.4516 26.72 60.3706 26.4815 60.3706 26.1845C60.3706 25.8785 60.4516 25.64 60.6136 25.469C60.7756 25.298 60.9961 25.2125 61.2751 25.2125C61.5541 25.2125 61.7701 25.298 61.9231 25.469C62.0851 25.64 62.1661 25.8785 62.1661 26.1845C62.1661 26.4905 62.0851 26.729 61.9231 26.9C61.7611 27.071 61.5451 27.1565 61.2751 27.1565ZM63.5701 27.1565C63.2911 27.1565 63.0706 27.071 62.9086 26.9C62.7466 26.72 62.6656 26.4815 62.6656 26.1845C62.6656 25.8785 62.7466 25.64 62.9086 25.469C63.0706 25.298 63.2911 25.2125 63.5701 25.2125C63.8491 25.2125 64.0651 25.298 64.2181 25.469C64.3801 25.64 64.4611 25.8785 64.4611 26.1845C64.4611 26.4815 64.3801 26.72 64.2181 26.9C64.0561 27.071 63.8401 27.1565 63.5701 27.1565ZM59.4391 35C59.3941 35 59.3716 34.9775 59.3716 34.9325V33.434C59.3716 33.398 59.3941 33.38 59.4391 33.38H61.5316V28.3175H63.5431V33.38H65.5681C65.6131 33.38 65.6356 33.398 65.6356 33.434V34.9325C65.6356 34.9775 65.6131 35 65.5681 35H59.4391ZM65.4376 35C65.3926 35 65.3701 34.9775 65.3701 34.9325V33.434C65.3701 33.398 65.3926 33.38 65.4376 33.38H67.1251V24.74H69.1366V35H65.4376ZM71.8385 24.74H73.85V35H71.8385V24.74ZM84.5485 35V35.216C84.5485 35.837 84.4315 36.3725 84.1975 36.8225C83.9635 37.2725 83.635 37.619 83.212 37.862C82.789 38.114 82.294 38.24 81.727 38.24C81.268 38.24 80.845 38.186 80.458 38.078C80.071 37.97 79.666 37.772 79.243 37.484L80.053 36.1745C80.287 36.3275 80.494 36.431 80.674 36.485C80.863 36.539 81.0835 36.566 81.3355 36.566C81.6955 36.566 81.9835 36.4265 82.1995 36.1475C82.4245 35.8775 82.537 35.5355 82.537 35.1215V28.3175H84.5485V33.38H86.3035C86.3485 33.38 86.371 33.398 86.371 33.434V34.9325C86.371 34.9775 86.3485 35 86.3035 35H84.5485ZM89.4427 38.375C89.1637 38.375 88.9432 38.285 88.7812 38.105C88.6192 37.934 88.5382 37.7 88.5382 37.403C88.5382 37.106 88.6147 36.8675 88.7677 36.6875C88.9297 36.5165 89.1547 36.431 89.4427 36.431C89.7217 36.431 89.9377 36.5165 90.0907 36.6875C90.2527 36.8585 90.3337 37.097 90.3337 37.403C90.3337 37.7 90.2527 37.934 90.0907 38.105C89.9287 38.285 89.7127 38.375 89.4427 38.375ZM86.1622 35C86.1172 35 86.0947 34.9775 86.0947 34.9325V33.434C86.0947 33.398 86.1172 33.38 86.1622 33.38H91.6162C91.4992 33.272 91.3867 33.128 91.2787 32.948C91.1797 32.768 91.0897 32.552 91.0087 32.3C90.9277 32.048 90.8557 31.7645 90.7927 31.4495C90.7297 31.1435 90.6532 30.887 90.5632 30.68C90.4732 30.464 90.3652 30.293 90.2392 30.167C90.1222 30.041 89.9737 29.951 89.7937 29.897C89.6227 29.834 89.4157 29.8025 89.1727 29.8025C88.8577 29.8025 88.5607 29.843 88.2817 29.924C88.0027 30.005 87.7012 30.1355 87.3772 30.3155L86.7697 28.8305C87.1657 28.6145 87.5977 28.4525 88.0657 28.3445C88.5337 28.2365 89.0152 28.1825 89.5102 28.1825C89.7982 28.1825 90.0547 28.196 90.2797 28.223C90.5137 28.25 90.7252 28.2995 90.9142 28.3715C91.2382 28.4795 91.5172 28.637 91.7512 28.844C91.9852 29.051 92.1787 29.3165 92.3317 29.6405C92.4937 29.9555 92.6107 30.338 92.6827 30.788C92.7637 31.238 92.8492 31.634 92.9392 31.976C93.0382 32.309 93.1417 32.597 93.2497 32.84C93.3667 33.074 93.4927 33.254 93.6277 33.38H94.5052C94.5502 33.38 94.5727 33.398 94.5727 33.434V34.9325C94.5727 34.9775 94.5502 35 94.5052 35H86.1622ZM96.2116 27.1565C95.9326 27.1565 95.7121 27.071 95.5501 26.9C95.3881 26.72 95.3071 26.4815 95.3071 26.1845C95.3071 25.8785 95.3881 25.64 95.5501 25.469C95.7121 25.298 95.9326 25.2125 96.2116 25.2125C96.4906 25.2125 96.7066 25.298 96.8596 25.469C97.0216 25.64 97.1026 25.8785 97.1026 26.1845C97.1026 26.4905 97.0216 26.729 96.8596 26.9C96.6976 27.071 96.4816 27.1565 96.2116 27.1565ZM98.5066 27.1565C98.2276 27.1565 98.0071 27.071 97.8451 26.9C97.6831 26.72 97.6021 26.4815 97.6021 26.1845C97.6021 25.8785 97.6831 25.64 97.8451 25.469C98.0071 25.298 98.2276 25.2125 98.5066 25.2125C98.7856 25.2125 99.0016 25.298 99.1546 25.469C99.3166 25.64 99.3976 25.8785 99.3976 26.1845C99.3976 26.4815 99.3166 26.72 99.1546 26.9C98.9926 27.071 98.7766 27.1565 98.5066 27.1565ZM94.3756 35C94.3306 35 94.3081 34.9775 94.3081 34.9325V33.434C94.3081 33.398 94.3306 33.38 94.3756 33.38H96.4681V28.3175H98.4796V33.38H100.505C100.55 33.38 100.572 33.398 100.572 33.434V34.9325C100.572 34.9775 100.55 35 100.505 35H94.3756ZM100.374 35C100.329 35 100.307 34.9775 100.307 34.9325V33.434C100.307 33.398 100.329 33.38 100.374 33.38H101.9C101.783 33.101 101.693 32.8085 101.63 32.5025C101.567 32.1875 101.535 31.859 101.535 31.517C101.535 31.13 101.598 30.7115 101.724 30.2615C101.859 29.8025 102.026 29.411 102.224 29.087C102.656 28.835 103.115 28.646 103.601 28.52C104.096 28.385 104.528 28.3175 104.897 28.3175C105.509 28.3175 106.067 28.448 106.571 28.709C107.075 28.97 107.466 29.3435 107.745 29.8295C108.024 30.3065 108.164 30.8645 108.164 31.5035C108.164 31.8455 108.123 32.1695 108.042 32.4755C107.961 32.7815 107.844 33.065 107.691 33.326C107.367 33.857 106.922 34.271 106.355 34.568C105.788 34.856 105.162 35 104.478 35H100.374ZM103.398 31.8005C103.398 32.0255 103.425 32.273 103.479 32.543C103.533 32.804 103.61 33.083 103.709 33.38H104.222C104.582 33.38 104.906 33.299 105.194 33.137C105.482 32.966 105.711 32.741 105.882 32.462C106.053 32.174 106.139 31.8545 106.139 31.5035C106.139 31.0265 106.022 30.6485 105.788 30.3695C105.554 30.0815 105.243 29.9375 104.856 29.9375C104.658 29.9375 104.451 29.969 104.235 30.032C104.028 30.095 103.817 30.1895 103.601 30.3155C103.538 30.5495 103.488 30.7925 103.452 31.0445C103.416 31.2875 103.398 31.5395 103.398 31.8005Z" fill="white"/>
</svg>
