<?xml version="1.0" encoding="utf-8"?>
<!-- Generator: Adobe Illustrator 24.2.3, SVG Export Plug-In . SVG Version: 6.00 Build 0)  -->
<svg version="1.1" id="Layer_1" xmlns="http://www.w3.org/2000/svg" xmlns:xlink="http://www.w3.org/1999/xlink" x="0px" y="0px"
	 viewBox="0 0 145 46" style="enable-background:new 0 0 145 46;" xml:space="preserve">
<style type="text/css">
	.st0{fill:#0A284A;}
	.st1{fill:#FFFFFF;}
	.st2{fill:url(#SVGID_1_);}
	.st3{fill:url(#SVGID_2_);}
	.st4{fill:url(#SVGID_3_);}
	.st5{fill:url(#SVGID_4_);}
</style>
<path class="st0" d="M5,0h135c2.8,0,5,2.2,5,5v36c0,2.8-2.2,5-5,5H5c-2.8,0-5-2.2-5-5V5C0,2.2,2.2,0,5,0z"/>
<path class="st1" d="M12.8,40.4c-0.3,0-0.5-0.1-0.6-0.2c-0.2-0.2-0.2-0.4-0.2-0.7c0-0.3,0.1-0.5,0.2-0.7c0.2-0.2,0.4-0.2,0.6-0.2
	c0.3,0,0.5,0.1,0.6,0.2c0.2,0.2,0.2,0.4,0.2,0.7c0,0.3-0.1,0.5-0.2,0.7C13.2,40.3,13,40.4,12.8,40.4z M15.1,40.4
	c-0.3,0-0.5-0.1-0.6-0.2c-0.2-0.2-0.2-0.4-0.2-0.7c0-0.3,0.1-0.5,0.2-0.7c0.2-0.2,0.4-0.2,0.6-0.2c0.3,0,0.5,0.1,0.6,0.2
	c0.2,0.2,0.2,0.4,0.2,0.7c0,0.3-0.1,0.5-0.2,0.7C15.5,40.3,15.3,40.4,15.1,40.4z M11.9,37.2c-0.6,0-1-0.1-1.4-0.4s-0.7-0.6-0.9-1.1
	c-0.2-0.5-0.3-1-0.3-1.6c0-0.5,0-0.9,0.1-1.3c0.1-0.4,0.2-0.8,0.3-1.3h1.6c-0.1,0.4-0.2,0.7-0.3,1.1c0,0.3-0.1,0.8-0.1,1.2
	c0,0.4,0.1,0.7,0.2,1c0.1,0.3,0.3,0.5,0.6,0.7c0.3,0.2,0.5,0.3,0.9,0.3H15c0.4,0,0.8,0,1.1-0.1c0.3-0.1,0.6-0.2,0.7-0.3
	c0.2-0.1,0.3-0.3,0.3-0.6c0-0.1,0-0.3-0.1-0.4c-0.1-0.1-0.2-0.3-0.4-0.4c-0.2-0.1-0.3-0.3-0.6-0.4c-0.2-0.1-0.4-0.3-0.6-0.4
	c-0.2-0.1-0.4-0.3-0.6-0.4c-0.3-0.2-0.5-0.4-0.6-0.5c-0.2-0.2-0.3-0.3-0.4-0.5c-0.1-0.2-0.1-0.3-0.1-0.5c0-0.3,0.1-0.6,0.2-0.9
	c0.1-0.3,0.3-0.6,0.5-0.9c0.3-0.4,0.6-0.8,1-1.1c0.4-0.3,0.8-0.6,1.2-0.8c0.4-0.2,0.8-0.3,1.2-0.3c0.2,0,0.3,0,0.5,0.1
	c0.2,0,0.3,0.1,0.5,0.2c0.2,0.1,0.4,0.2,0.6,0.4l-0.6,1.3c-0.1-0.1-0.2-0.1-0.4-0.1c-0.1-0.1-0.3-0.1-0.4-0.1
	c-0.1,0-0.2-0.1-0.4-0.1c-0.1,0-0.3,0-0.5,0.1c-0.2,0.1-0.3,0.2-0.5,0.3c-0.3,0.2-0.5,0.4-0.7,0.6c-0.2,0.2-0.4,0.4-0.5,0.6
	c-0.1,0.2-0.2,0.4-0.2,0.6c0,0.1,0.1,0.2,0.2,0.4c0.1,0.1,0.3,0.3,0.4,0.4c0.2,0.1,0.4,0.2,0.5,0.4c0.2,0.1,0.5,0.3,0.7,0.4
	c0.2,0.2,0.4,0.3,0.6,0.5c0.4,0.3,0.6,0.6,0.8,0.9c0.2,0.3,0.3,0.6,0.3,0.9c0,0.8-0.3,1.4-1,1.8c-0.7,0.4-1.6,0.6-2.8,0.6H11.9z
	 M30.1,32.6C30.1,32.6,30.1,32.6,30.1,32.6l0.1,1.4c0,0,0,0.1-0.1,0.1h-9.4v-1.4h2.6l-1.7-7h1.8l1.7,7h1.5v-8.8h1.7v8.8H30.1z
	 M32.4,37.1c-0.3,0-0.5-0.1-0.6-0.2c-0.2-0.2-0.2-0.4-0.2-0.7c0-0.3,0.1-0.5,0.2-0.7c0.2-0.2,0.4-0.2,0.6-0.2c0.3,0,0.5,0.1,0.6,0.2
	c0.2,0.2,0.2,0.4,0.2,0.7s-0.1,0.5-0.2,0.7C32.9,37.1,32.7,37.1,32.4,37.1z M29.9,34C29.9,34,29.9,34,29.9,34l-0.1-1.4
	c0,0,0-0.1,0.1-0.1h1.7v-5.2h1.7V34H29.9z M47.8,34c-0.1,1.1-0.4,1.9-1,2.4c-0.6,0.5-1.5,0.8-2.7,0.8h-0.7c-0.4,0-0.7,0-1-0.1
	s-0.6-0.2-0.8-0.4c-0.5-0.3-0.9-0.7-1.1-1.3c-0.3-0.5-0.4-1.2-0.4-1.9c0-0.4,0-0.7,0.1-1.1c0.1-0.4,0.1-0.7,0.2-1.1
	c0.1-0.3,0.2-0.7,0.4-0.9h1.6C42,31,41.9,31.5,41.9,32c-0.1,0.5-0.1,1.1-0.1,1.6c0,0.7,0.2,1.2,0.5,1.6c0.3,0.4,0.8,0.6,1.3,0.6H44
	c0.5,0,0.9-0.1,1.2-0.2c0.3-0.2,0.5-0.4,0.7-0.7c0.2-0.3,0.2-0.7,0.2-1.2v-9.9h1.7v8.8h1.7c0,0,0.1,0,0.1,0.1v1.3c0,0,0,0.1-0.1,0.1
	H47.8z M52.6,37.1c-0.3,0-0.5-0.1-0.6-0.2s-0.2-0.4-0.2-0.7c0-0.3,0.1-0.5,0.2-0.7c0.2-0.2,0.4-0.2,0.6-0.2s0.5,0.1,0.6,0.2
	c0.2,0.2,0.2,0.4,0.2,0.7s-0.1,0.5-0.2,0.7C53.1,37.1,52.9,37.1,52.6,37.1z M49.4,34C49.3,34,49.3,34,49.4,34l-0.1-1.4
	c0,0,0-0.1,0.1-0.1l5.6,0c-0.2-0.2-0.3-0.4-0.5-0.8c-0.1-0.4-0.3-0.8-0.4-1.3c-0.1-0.4-0.2-0.8-0.3-1.1c-0.1-0.3-0.3-0.4-0.5-0.6
	s-0.5-0.2-0.8-0.2s-0.6,0-0.9,0.1c-0.3,0.1-0.6,0.2-0.9,0.4L50,27.9c0.4-0.2,0.8-0.4,1.3-0.5c0.5-0.1,0.9-0.2,1.4-0.2
	c0.3,0,0.5,0,0.7,0.1c0.2,0,0.4,0.1,0.6,0.2c0.5,0.2,0.8,0.5,1.1,0.9c0.3,0.4,0.5,0.9,0.6,1.6c0.1,0.5,0.2,0.9,0.3,1.2
	c0.1,0.4,0.2,0.6,0.3,0.9c0.1,0.2,0.2,0.4,0.4,0.6V34H49.4z M61.2,37.2c-0.6,0-1.1-0.1-1.5-0.2c-0.4-0.1-0.8-0.3-1.2-0.5l0.7-1.3
	c0.3,0.2,0.7,0.3,1,0.4c0.3,0.1,0.7,0.1,1,0.1c0.5,0,1-0.1,1.3-0.4c0.3-0.3,0.5-0.7,0.5-1.1V34h-1.3c-0.6,0-1.2-0.1-1.6-0.4
	c-0.4-0.2-0.8-0.6-1-1.1c-0.2-0.5-0.4-1-0.4-1.7c0-0.7,0.2-1.4,0.5-1.9c0.4-0.5,0.8-0.9,1.4-1.2c0.6-0.3,1.3-0.4,2.1-0.4h2v5.2h1.5
	c0,0,0.1,0,0.1,0.1v1.3c0,0,0,0.1-0.1,0.1h-1.5v0.3c0,0.6-0.1,1.1-0.4,1.6c-0.3,0.5-0.7,0.8-1.2,1C62.5,37.1,61.9,37.2,61.2,37.2z
	 M62.9,32.6v-3.8h-0.5c-0.7,0-1.2,0.2-1.5,0.5c-0.4,0.4-0.5,0.9-0.5,1.5c0,0.6,0.1,1,0.4,1.3c0.3,0.3,0.6,0.4,1.1,0.4H62.9z
	 M69.2,37.1c-0.3,0-0.5-0.1-0.6-0.2s-0.2-0.4-0.2-0.7c0-0.3,0.1-0.5,0.2-0.7c0.2-0.2,0.4-0.2,0.6-0.2c0.3,0,0.5,0.1,0.6,0.2
	c0.2,0.2,0.2,0.4,0.2,0.7s-0.1,0.5-0.2,0.7C69.7,37.1,69.5,37.1,69.2,37.1z M65.9,34C65.9,34,65.9,34,65.9,34l-0.1-1.4
	c0,0,0-0.1,0.1-0.1l5.6,0c-0.2-0.2-0.3-0.4-0.5-0.8c-0.1-0.4-0.3-0.8-0.4-1.3c-0.1-0.4-0.2-0.8-0.3-1.1c-0.1-0.3-0.3-0.4-0.5-0.6
	c-0.2-0.1-0.5-0.2-0.8-0.2c-0.3,0-0.6,0-0.9,0.1c-0.3,0.1-0.6,0.2-0.9,0.4l-0.6-1.3c0.4-0.2,0.8-0.4,1.3-0.5
	c0.4-0.1,0.9-0.2,1.4-0.2c0.3,0,0.5,0,0.7,0.1c0.2,0,0.4,0.1,0.6,0.2c0.5,0.2,0.8,0.5,1.1,0.9c0.3,0.4,0.5,0.9,0.6,1.6
	c0.1,0.5,0.2,0.9,0.3,1.2c0.1,0.4,0.2,0.6,0.3,0.9c0.1,0.2,0.2,0.4,0.4,0.6V34H65.9z M83,34v0.3c0,0.6-0.1,1.1-0.3,1.6
	c-0.2,0.5-0.5,0.8-0.9,1c-0.4,0.2-0.9,0.4-1.4,0.4c-0.4,0-0.7,0-1.1-0.1c-0.3-0.1-0.7-0.3-1-0.5l0.7-1.2c0.2,0.1,0.4,0.2,0.6,0.3
	c0.2,0,0.4,0.1,0.6,0.1c0.4,0,0.7-0.1,0.9-0.4c0.2-0.3,0.3-0.7,0.3-1.1v-6.9H83v5.2h1.7c0,0,0.1,0,0.1,0.1v1.3c0,0,0,0.1-0.1,0.1H83
	z M87.8,37.1c-0.3,0-0.5-0.1-0.6-0.2S87,36.5,87,36.2c0-0.3,0.1-0.5,0.2-0.7c0.2-0.2,0.4-0.2,0.6-0.2c0.3,0,0.5,0.1,0.6,0.2
	c0.2,0.2,0.2,0.4,0.2,0.7s-0.1,0.5-0.2,0.7C88.3,37.1,88.1,37.1,87.8,37.1z M84.6,34C84.5,34,84.5,34,84.6,34l-0.1-1.4
	c0,0,0-0.1,0.1-0.1h5.6c-0.1-0.1-0.2-0.3-0.3-0.4c-0.1-0.2-0.2-0.4-0.3-0.7c-0.1-0.3-0.2-0.6-0.2-0.9c-0.1-0.3-0.1-0.6-0.2-0.8
	c-0.1-0.2-0.2-0.4-0.3-0.6c-0.1-0.1-0.3-0.2-0.4-0.3c-0.2-0.1-0.4-0.1-0.6-0.1c-0.3,0-0.6,0-0.9,0.1c-0.3,0.1-0.6,0.2-0.9,0.4
	l-0.6-1.3c0.4-0.2,0.8-0.4,1.3-0.5c0.4-0.1,0.9-0.2,1.4-0.2c0.3,0,0.5,0,0.8,0.1c0.2,0,0.4,0.1,0.6,0.2c0.3,0.1,0.6,0.3,0.8,0.5
	c0.2,0.2,0.4,0.5,0.5,0.8c0.1,0.3,0.3,0.7,0.3,1.2c0.1,0.5,0.2,0.9,0.3,1.2c0.1,0.3,0.2,0.6,0.3,0.9c0.1,0.2,0.2,0.4,0.4,0.6h0.9
	c0,0,0.1,0,0.1,0.1v1.3c0,0,0,0.1-0.1,0.1H84.6z M94.4,26.2c-0.3,0-0.5-0.1-0.6-0.2c-0.2-0.2-0.2-0.4-0.2-0.7c0-0.3,0.1-0.5,0.2-0.7
	c0.2-0.2,0.4-0.2,0.6-0.2c0.3,0,0.5,0.1,0.6,0.2c0.2,0.2,0.2,0.4,0.2,0.7c0,0.3-0.1,0.5-0.2,0.7C94.8,26.1,94.6,26.2,94.4,26.2z
	 M96.7,26.2c-0.3,0-0.5-0.1-0.6-0.2s-0.2-0.4-0.2-0.7s0.1-0.5,0.2-0.7c0.2-0.2,0.4-0.2,0.6-0.2c0.3,0,0.5,0.1,0.6,0.3
	c0.2,0.2,0.2,0.4,0.2,0.7c0,0.3-0.1,0.5-0.2,0.7C97.2,26.1,97,26.2,96.7,26.2z M92.6,34C92.6,34,92.6,34,92.6,34l-0.1-1.4
	c0,0,0-0.1,0.1-0.1h2.1v-5.2h1.7v5.2h2c0,0,0.1,0,0.1,0.1v1.3c0,0,0,0.1-0.1,0.1H92.6z M98.4,34C98.3,34,98.3,34,98.4,34l-0.1-1.4
	c0,0,0-0.1,0.1-0.1h1.6c-0.1-0.3-0.2-0.7-0.3-1c-0.1-0.3-0.1-0.7-0.1-1c0-0.4,0.1-0.8,0.2-1.2c0.1-0.4,0.3-0.8,0.4-1.1
	c0.4-0.3,0.8-0.5,1.3-0.6c0.5-0.1,0.9-0.2,1.3-0.2c0.6,0,1.1,0.1,1.6,0.4c0.5,0.3,0.8,0.6,1.1,1.1c0.3,0.5,0.4,1,0.4,1.6
	c0,0.3,0,0.7-0.1,1c-0.1,0.3-0.2,0.6-0.3,0.9c-0.3,0.5-0.7,0.9-1.3,1.2c-0.5,0.3-1.1,0.4-1.8,0.4H98.4z M101.2,30.7
	c0,0.3,0,0.6,0.1,0.9c0.1,0.3,0.2,0.6,0.3,1h0.7c0.4,0,0.7-0.1,1-0.3c0.3-0.2,0.5-0.4,0.7-0.7c0.2-0.3,0.2-0.7,0.2-1.1
	c0-0.5-0.1-0.9-0.4-1.2c-0.3-0.3-0.6-0.5-1-0.5c-0.2,0-0.5,0-0.7,0.1c-0.2,0.1-0.5,0.2-0.7,0.3c-0.1,0.2-0.1,0.4-0.1,0.7
	C101.2,30.2,101.2,30.4,101.2,30.7z"/>
<path class="st1" d="M41,10.8c-0.2,0-0.4-0.1-0.5-0.2c-0.1-0.1-0.2-0.3-0.2-0.5c0-0.2,0.1-0.4,0.2-0.5c0.1-0.1,0.3-0.2,0.5-0.2
	c0.2,0,0.4,0.1,0.5,0.2c0.1,0.1,0.2,0.3,0.2,0.5c0,0.2-0.1,0.4-0.2,0.5C41.4,10.8,41.2,10.8,41,10.8z M44,16c0,0.8-0.3,1.5-0.8,1.9
	c-0.5,0.4-1.2,0.6-2.1,0.6h-0.6c-0.3,0-0.5,0-0.8-0.1c-0.2-0.1-0.5-0.2-0.7-0.3c-0.4-0.2-0.7-0.6-0.9-1c-0.2-0.4-0.3-0.9-0.3-1.4
	c0-0.4,0-0.8,0.1-1.2c0.1-0.4,0.2-0.8,0.4-1.1h1.2c-0.1,0.4-0.2,0.7-0.3,1.1s-0.1,0.8-0.1,1.2c0,0.5,0.1,0.9,0.4,1.2
	c0.3,0.3,0.6,0.5,1,0.5h0.4c0.4,0,0.7-0.1,0.9-0.2c0.2-0.1,0.4-0.3,0.5-0.6c0.1-0.2,0.2-0.5,0.2-0.9v-4.9H44v4.1h1.3
	c0,0,0.1,0,0.1,0v1c0,0,0,0.1-0.1,0.1H44z M45.2,16C45.2,16,45.2,16,45.2,16l-0.1-1.1c0,0,0,0,0.1,0h1.2c-0.1-0.3-0.2-0.5-0.2-0.8
	c-0.1-0.3-0.1-0.5-0.1-0.8c0-0.3,0-0.6,0.1-0.9c0.1-0.3,0.2-0.6,0.3-0.9c0.3-0.2,0.7-0.4,1-0.5c0.4-0.1,0.7-0.2,1-0.2
	c0.5,0,0.9,0.1,1.3,0.3c0.4,0.2,0.7,0.5,0.9,0.9c0.2,0.4,0.3,0.8,0.3,1.3c0,0.3,0,0.5-0.1,0.8c-0.1,0.2-0.1,0.5-0.3,0.7
	c-0.2,0.4-0.6,0.7-1,0.9c-0.4,0.2-0.9,0.3-1.4,0.3H45.2z M47.4,13.4c0,0.2,0,0.5,0.1,0.7s0.1,0.5,0.2,0.8h0.5c0.3,0,0.5-0.1,0.8-0.2
	c0.2-0.1,0.4-0.3,0.5-0.6c0.1-0.2,0.2-0.5,0.2-0.8c0-0.4-0.1-0.7-0.3-0.9c-0.2-0.2-0.5-0.4-0.8-0.4c-0.2,0-0.4,0-0.5,0.1
	c-0.2,0.1-0.4,0.1-0.5,0.3c0,0.2-0.1,0.3-0.1,0.5C47.4,13,47.4,13.2,47.4,13.4z M58.9,16c-0.6,0-1.1-0.1-1.6-0.3
	c-0.4-0.2-0.8-0.5-1-0.9c-0.2-0.4-0.3-0.8-0.3-1.4c0-0.6,0.1-1,0.4-1.4c0.3-0.4,0.6-0.7,1.1-0.9c0.5-0.2,1-0.3,1.6-0.3h0.4v-0.6h1.3
	v4.6H62c0,0,0.1,0,0.1,0v1c0,0,0,0.1-0.1,0.1H58.9z M59.4,14.9v-2.9H59c-0.5,0-0.9,0.1-1.2,0.4c-0.3,0.3-0.4,0.6-0.4,1.1
	c0,0.4,0.1,0.8,0.4,1s0.6,0.4,1.1,0.4H59.4z M63.2,18.4c-0.2,0-0.4-0.1-0.5-0.2c-0.1-0.1-0.2-0.3-0.2-0.5c0-0.2,0.1-0.4,0.2-0.5
	c0.1-0.1,0.3-0.2,0.5-0.2c0.2,0,0.4,0.1,0.5,0.2c0.1,0.1,0.2,0.3,0.2,0.5c0,0.2-0.1,0.4-0.2,0.5C63.6,18.4,63.4,18.4,63.2,18.4z
	 M65,18.4c-0.2,0-0.4-0.1-0.5-0.2c-0.1-0.1-0.2-0.3-0.2-0.5c0-0.2,0.1-0.4,0.2-0.5c0.1-0.1,0.3-0.2,0.5-0.2c0.2,0,0.4,0.1,0.5,0.2
	c0.1,0.1,0.2,0.3,0.2,0.5c0,0.2-0.1,0.4-0.2,0.5C65.4,18.4,65.2,18.4,65,18.4z M61.9,16C61.8,16,61.8,16,61.9,16l-0.1-1.1
	c0,0,0,0,0.1,0h1.6v-4.1h1.4v4.1h1.6c0,0,0.1,0,0.1,0v1c0,0,0,0.1-0.1,0.1H61.9z M66.3,16C66.3,16,66.3,16,66.3,16l-0.1-1.1
	c0,0,0,0,0.1,0h1.3V8H69v6.9h1.4c0,0,0.1,0,0.1,0v1c0,0,0,0.1-0.1,0.1H66.3z M70.3,16C70.3,16,70.2,16,70.3,16l-0.1-1.1
	c0,0,0,0,0.1,0h1.6c-0.2-0.1-0.3-0.2-0.4-0.4s-0.2-0.4-0.3-0.6s-0.1-0.4-0.1-0.7c0-0.5,0.1-1,0.3-1.4c0.2-0.4,0.6-0.7,1-0.9
	s0.9-0.3,1.5-0.3c0.3,0,0.6,0,0.9,0.1c0.3,0.1,0.6,0.1,0.7,0.2l-0.4,1.1c-0.3-0.1-0.5-0.2-0.7-0.2c-0.2,0-0.4-0.1-0.6-0.1
	c-0.3,0-0.6,0.1-0.8,0.2c-0.2,0.1-0.4,0.3-0.5,0.5c-0.1,0.2-0.2,0.5-0.2,0.8c0,0.3,0.1,0.6,0.2,0.8c0.1,0.2,0.3,0.4,0.5,0.5
	c0.2,0.1,0.4,0.2,0.7,0.2h1.9V16H70.3z M86.5,16c0,0.8-0.3,1.5-0.8,1.9s-1.2,0.6-2.1,0.6H83c-0.3,0-0.5,0-0.8-0.1
	c-0.2-0.1-0.5-0.2-0.7-0.3c-0.4-0.2-0.7-0.6-0.9-1c-0.2-0.4-0.3-0.9-0.3-1.5c0-0.3,0-0.5,0.1-0.8c0-0.3,0.1-0.6,0.2-0.8
	c0.1-0.3,0.2-0.5,0.3-0.7h1.2c-0.1,0.3-0.2,0.7-0.3,1.1c-0.1,0.4-0.1,0.8-0.1,1.2c0,0.5,0.1,1,0.4,1.3s0.6,0.5,1,0.5h0.4
	c0.4,0,0.7-0.1,0.9-0.2c0.2-0.1,0.4-0.3,0.5-0.6c0.1-0.2,0.2-0.5,0.2-0.9V8h1.3v6.9h1.3c0,0,0.1,0,0.1,0v1c0,0,0,0.1-0.1,0.1H86.5z
	 M87.7,16C87.6,16,87.6,16,87.7,16l-0.1-1.1c0,0,0,0,0.1,0h1.2v-3.9h1.3v1.9c0.2-0.5,0.5-0.9,0.8-1.2c0.3-0.3,0.6-0.5,1-0.7
	s0.7-0.2,1.2-0.2c0.8,0,1.5,0.2,1.9,0.7s0.6,1.1,0.6,2.1v1.4H97c0,0,0.1,0,0.1,0v1c0,0,0,0.1-0.1,0.1H87.7z M94.3,14.9v-1.4
	c0-0.6-0.1-1-0.4-1.2c-0.3-0.3-0.6-0.4-1.1-0.4c-0.3,0-0.7,0.1-1,0.3c-0.3,0.2-0.6,0.4-0.8,0.7c-0.3,0.3-0.5,0.7-0.7,1.2v0.8H94.3z
	 M96.9,16C96.9,16,96.9,16,96.9,16l-0.1-1.1c0,0,0,0,0.1,0l4.3,0c-0.1-0.1-0.3-0.3-0.4-0.6c-0.1-0.3-0.2-0.6-0.3-1
	c-0.1-0.3-0.2-0.6-0.3-0.8c-0.1-0.2-0.2-0.4-0.4-0.4c-0.2-0.1-0.4-0.1-0.6-0.1c-0.2,0-0.5,0-0.7,0.1c-0.2,0.1-0.5,0.2-0.7,0.3
	l-0.4-1c0.3-0.2,0.6-0.3,1-0.4c0.4-0.1,0.7-0.1,1.1-0.1c0.2,0,0.4,0,0.5,0c0.2,0,0.3,0.1,0.5,0.1c0.4,0.1,0.6,0.4,0.8,0.7
	c0.2,0.3,0.4,0.7,0.5,1.3c0.1,0.4,0.1,0.7,0.2,1c0.1,0.3,0.2,0.5,0.3,0.7c0.1,0.2,0.2,0.3,0.3,0.4V16H96.9z M104.3,8h1.4v8h-1.4V8z"
	/>
<g>
	
		<linearGradient id="SVGID_1_" gradientUnits="userSpaceOnUse" x1="40.2648" y1="53.8916" x2="43.17" y2="53.8916" gradientTransform="matrix(5.3545 0 0 -5.3545 -99.9636 304.9135)">
		<stop  offset="0" style="stop-color:#63BE6B"/>
		<stop  offset="0.506" style="stop-color:#5BBC6A"/>
		<stop  offset="1" style="stop-color:#4AB96A"/>
	</linearGradient>
	<path class="st2" d="M131.2,18.2l-14.7-8.4c-0.2-0.1-0.4-0.1-0.6,0c-0.2,0.1-0.3,0.3-0.3,0.5c0,0,0,0.8,0,2L126.3,23L131.2,18.2z"
		/>
	
		<linearGradient id="SVGID_2_" gradientUnits="userSpaceOnUse" x1="40.267" y1="52.656" x2="42.263" y2="52.656" gradientTransform="matrix(5.3545 0 0 -5.3545 -99.9636 304.9135)">
		<stop  offset="0" style="stop-color:#3EC6F2"/>
		<stop  offset="1" style="stop-color:#45AFE3"/>
	</linearGradient>
	<path class="st3" d="M115.6,12.3c0,4.6,0.1,15.7,0.1,21.3L126.3,23L115.6,12.3z"/>
	
		<linearGradient id="SVGID_3_" gradientUnits="userSpaceOnUse" x1="42.2608" y1="52.5888" x2="44.7942" y2="52.5888" gradientTransform="matrix(5.3545 0 0 -5.3545 -99.9636 304.9135)">
		<stop  offset="0" style="stop-color:#FAA51A"/>
		<stop  offset="0.387" style="stop-color:#FAB716"/>
		<stop  offset="0.741" style="stop-color:#FAC412"/>
		<stop  offset="1" style="stop-color:#FAC80F"/>
	</linearGradient>
	<path class="st4" d="M139.6,22.9l-8.4-4.8l-4.9,4.9l5.5,5.5l7.8-4.5c0.2-0.1,0.3-0.3,0.3-0.5C139.9,23.3,139.8,23.1,139.6,22.9z"/>
	
		<linearGradient id="SVGID_4_" gradientUnits="userSpaceOnUse" x1="40.2837" y1="51.2997" x2="43.2877" y2="51.2997" gradientTransform="matrix(5.3545 0 0 -5.3545 -99.9636 304.9135)">
		<stop  offset="0" style="stop-color:#EC3B50"/>
		<stop  offset="1" style="stop-color:#E7515B"/>
	</linearGradient>
	<path class="st5" d="M115.7,33.6c0,2,0,3.2,0,3.2c0,0.2,0.1,0.4,0.3,0.5c0.2,0.1,0.4,0.1,0.6,0l15.2-8.9l-5.5-5.5L115.7,33.6z"/>
</g>
</svg>
