<svg xmlns="http://www.w3.org/2000/svg" width="69" height="20" viewBox="0 0 69 20" fill="none">
<g clip-path="url(#clip0_27458_109406)">
<path d="M13.1845 9.96476H15.0646L8.34313 0.352539H6.90952L0 9.96476H1.88014L7.47356 1.85665L10.9518 6.4865C10.9518 6.4865 8.86017 4.95888 6.25147 4.79437C5.87544 5.33491 5.59342 5.87545 5.59342 5.87545C7.02703 6.08697 9.80024 6.27498 13.1845 9.96476Z" fill="white"/>
<path d="M67.0986 9.96476H68.9787L62.2572 0.352539H60.8236L53.9141 9.96476H55.7942L61.3876 1.88015L64.8659 6.4865C64.8659 6.4865 62.7742 4.95888 60.1655 4.79437C59.7895 5.35841 59.5075 5.89895 59.5075 5.89895C60.9411 6.08697 63.7143 6.27498 67.0986 9.96476Z" fill="white"/>
<path d="M18.5213 4.48911H24.4908C25.3369 4.48911 26.0184 3.80755 26.0184 2.96149C26.0184 2.11543 25.3369 1.43388 24.4908 1.43388H17.8398V9.777H16.4297V0.258789H24.6788C26.1829 0.258789 27.405 1.48088 27.405 2.98499C27.405 4.48911 26.1829 5.7347 24.6788 5.7347H22.5166C22.5166 5.7347 25.7834 6.06372 27.546 9.94151H25.8539C25.8539 9.16596 22.6577 5.94622 18.4978 5.7582C18.5213 5.05315 18.5213 4.48911 18.5213 4.48911Z" fill="white"/>
<path d="M34.1229 4.23032V2.6087C33.5589 3.05523 32.5248 3.10223 32.5248 3.10223V4.30082H33.4649C33.3709 4.93537 32.2428 6.11046 31.1147 6.11046C30.9267 6.11046 30.5037 5.94595 30.5037 5.12338C30.5037 2.51469 34.2169 0.376028 35.3215 0.376028V0C29.9866 0.916569 29.1641 3.61927 29.1641 5.00588C29.1641 6.98002 29.7986 7.37955 30.5742 7.37955C33.2299 7.37955 34.1229 4.46533 34.1229 4.23032Z" fill="white"/>
<path d="M38.4957 4.93561C38.4957 2.65594 37.5086 1.33984 36.6156 1.33984C35.887 1.33984 35.323 2.27991 35.323 3.33749C35.323 4.30107 35.9105 5.61717 37.2971 5.61717C36.5686 9.07193 32.6673 8.81341 31.4922 8.81341C32.3618 9.28344 32.5498 9.37745 34.1714 9.37745C37.9082 9.37745 38.4957 6.39272 38.4957 4.93561ZM36.8271 2.65594C37.9787 2.65594 37.9082 4.18356 37.6732 4.67709C35.5345 4.20706 35.6755 2.65594 36.8271 2.65594Z" fill="white"/>
<path d="M38.9642 1.52768L40.0453 0.611109L39.5753 0.23508C39.5753 0.23508 39.0347 1.01064 38.7997 0.916632C38.5412 0.822625 38.2122 0.658112 38.3297 0.23508C38.4472 -0.187951 37.7656 0.141073 37.7656 0.517102C37.7891 0.89313 38.4942 1.52768 38.9642 1.52768Z" fill="white"/>
<path d="M40.5651 0.916504L39.625 1.78607C42.2572 3.12567 42.2807 4.48877 42.2807 5.14682C42.2807 7.61451 40.6356 8.78959 40.2595 9.37714C42.5157 8.50757 43.4558 6.65093 43.4558 5.00581C43.4558 2.56163 41.3171 1.33954 40.5651 0.916504Z" fill="white"/>
<path d="M40.8905 3.78369C39.9974 3.78369 40.0209 9.54162 35.2266 9.94115C36.9657 9.94115 40.1619 10.8577 41.055 5.2408C41.5955 5.2408 41.4075 3.78369 40.8905 3.78369Z" fill="white"/>
<path d="M34.3854 7.09717H33.4453V7.94323H34.3854V7.09717Z" fill="white"/>
<path d="M35.1588 6.08691H34.2188V6.93298H35.1588V6.08691Z" fill="white"/>
<path d="M56.7305 0.258789H55.2264L50.338 5.7347L45.3557 0.258789H43.8516L49.6095 6.55726V9.94151H51.1136V6.55726L56.7305 0.258789Z" fill="white"/>
<path d="M22.2594 17.6029C22.2124 17.4854 22.1419 17.3914 22.0479 17.2739C21.9539 17.1799 21.8599 17.0858 21.7189 17.0153C21.6014 16.9448 21.4604 16.8978 21.2959 16.8508C21.1314 16.8038 20.9668 16.7803 20.8023 16.7803C20.5673 16.7803 20.3558 16.8038 20.1678 16.8743C19.9798 16.9448 19.7918 17.0388 19.6508 17.1564C19.5097 17.2739 19.3922 17.4149 19.3217 17.6029C19.2512 17.7674 19.2042 17.9789 19.2042 18.1904C19.2042 18.4019 19.2512 18.6135 19.3217 18.778C19.3922 18.9425 19.5097 19.107 19.6508 19.2245C19.7918 19.342 19.9563 19.436 20.1678 19.5065C20.3558 19.577 20.5908 19.6005 20.8258 19.6005C21.2019 19.6005 21.5309 19.53 21.7659 19.389C22.0009 19.248 22.1654 19.06 22.2829 18.825L22.659 18.9895C22.518 19.3185 22.3064 19.5535 22.0009 19.718C21.6954 19.8826 21.2959 19.9766 20.8023 19.9766C20.5203 19.9766 20.2618 19.9296 20.0268 19.8591C19.7918 19.7885 19.5802 19.671 19.3922 19.5065C19.2042 19.3655 19.0632 19.1775 18.9692 18.9425C18.8752 18.731 18.8047 18.4725 18.8047 18.1904C18.8047 17.9084 18.8517 17.6499 18.9692 17.4384C19.0867 17.2269 19.2277 17.0388 19.4157 16.8743C19.6037 16.7098 19.8153 16.6158 20.0738 16.5218C20.3323 16.4513 20.5908 16.4043 20.8728 16.4043C21.0844 16.4043 21.2959 16.4278 21.4839 16.4748C21.6719 16.5218 21.8599 16.5923 22.0009 16.6863C22.1654 16.7803 22.2829 16.8743 22.4005 16.9918C22.518 17.1093 22.612 17.2504 22.659 17.3914L22.2594 17.6029Z" fill="white"/>
<path d="M27.9012 19.8822H27.2901L26.0915 18.6131H24.4699V19.8822H24.0469V16.5215H26.6791C27.1021 16.5215 27.4076 16.6155 27.6191 16.8035C27.8307 16.9915 27.9247 17.25 27.9247 17.5791C27.9247 17.7436 27.9012 17.8846 27.8307 18.0021C27.7602 18.1196 27.6661 18.2371 27.5721 18.3076C27.4546 18.4016 27.3371 18.4721 27.1726 18.5191C27.0316 18.5661 26.8436 18.5896 26.6791 18.6131L27.9012 19.8822ZM24.4699 16.921V18.2136H26.5146C26.8201 18.2136 27.0551 18.1666 27.2196 18.0491C27.3841 17.9316 27.4546 17.7671 27.4546 17.5556C27.4546 17.344 27.3841 17.1795 27.2666 17.0855C27.1256 16.968 26.9376 16.921 26.6556 16.921H24.4699Z" fill="white"/>
<path d="M33.0416 18.3317C33.0416 18.6137 32.9946 18.8722 32.9006 19.0837C32.8066 19.2952 32.6656 19.4598 32.5011 19.6008C32.3365 19.7418 32.125 19.8358 31.89 19.9063C31.655 19.9768 31.3965 20.0003 31.1145 20.0003C30.8324 20.0003 30.5974 19.9768 30.3624 19.9063C30.1274 19.8358 29.9394 19.7418 29.7749 19.6008C29.6103 19.4598 29.4928 19.2952 29.3988 19.0837C29.3048 18.8722 29.2578 18.6372 29.2578 18.3317V16.4985H29.7043V18.2612C29.7043 18.4962 29.7278 18.7077 29.7984 18.8722C29.8689 19.0367 29.9629 19.1777 30.0804 19.2717C30.1979 19.3658 30.3389 19.4598 30.5269 19.5068C30.6914 19.5538 30.8794 19.5773 31.091 19.5773C31.3025 19.5773 31.514 19.5538 31.6785 19.5068C31.8665 19.4598 32.0075 19.3893 32.1485 19.2717C32.2895 19.1777 32.3835 19.0367 32.4541 18.8722C32.5246 18.7077 32.5716 18.4962 32.5716 18.2612V16.4985H32.9946V18.3317H33.0416Z" fill="white"/>
<path d="M35.0637 16.5215H34.6406V19.8822H35.0637V16.5215Z" fill="white"/>
<path d="M39.8136 17.4617C39.743 17.2267 39.602 17.0622 39.414 16.9446C39.2025 16.8271 38.9205 16.7801 38.521 16.7801C38.2624 16.7801 38.0509 16.8036 37.8864 16.8271C37.6984 16.8506 37.5574 16.8976 37.4399 16.9446C37.3224 16.9916 37.2519 17.0622 37.1814 17.1562C37.1344 17.2267 37.1109 17.3207 37.1109 17.4147C37.1109 17.5557 37.1344 17.6497 37.2049 17.7202C37.2754 17.7907 37.3459 17.8612 37.4399 17.8847C37.5339 17.9317 37.6514 17.9552 37.7689 17.9552C37.8864 17.9552 38.0039 17.9787 38.1214 17.9787H38.2859C38.3329 17.9787 38.4035 17.9787 38.4505 17.9787C38.521 17.9787 38.5915 17.9787 38.662 17.9787H38.944C39.1555 17.9787 39.32 18.0022 39.508 18.0257C39.6725 18.0492 39.8136 18.0962 39.9546 18.1667C40.0721 18.2372 40.1661 18.3312 40.2366 18.4488C40.3071 18.5663 40.3541 18.7073 40.3541 18.8718C40.3541 19.0363 40.3306 19.2008 40.2601 19.3418C40.1896 19.4828 40.0721 19.6003 39.9311 19.6944C39.7901 19.7884 39.5785 19.8589 39.3435 19.9294C39.1085 19.9764 38.8265 20.0234 38.4975 20.0234C38.3329 20.0234 38.1919 20.0234 38.0509 20.0234C37.9334 20.0234 37.8159 19.9999 37.7219 19.9999C37.6279 19.9764 37.5339 19.9764 37.4634 19.9529C37.3929 19.9294 37.3224 19.9059 37.2519 19.8824C37.0403 19.7884 36.8758 19.6708 36.7583 19.5063C36.6408 19.3653 36.5938 19.1773 36.5703 18.9188H37.0403C37.0638 19.1773 37.2049 19.3653 37.4399 19.4828C37.6749 19.6003 38.0274 19.6708 38.4975 19.6708C38.9675 19.6708 39.32 19.6003 39.5315 19.4828C39.7666 19.3653 39.8841 19.1773 39.8841 18.9423C39.8841 18.8483 39.8606 18.7778 39.8136 18.6838C39.7665 18.5898 39.696 18.5428 39.6255 18.4958C39.5785 18.4723 39.508 18.4488 39.4375 18.4488C39.367 18.4253 39.273 18.4253 39.179 18.4253C39.085 18.4253 38.991 18.4253 38.897 18.4018C38.803 18.4018 38.7325 18.4018 38.662 18.4018C38.5445 18.4018 38.4505 18.4018 38.3564 18.4018C38.2624 18.4018 38.1684 18.4018 38.0744 18.4018C37.9099 18.4018 37.7454 18.3783 37.5809 18.3548C37.4164 18.3312 37.2519 18.2842 37.1344 18.2137C36.9933 18.1432 36.8758 18.0492 36.8053 17.9317C36.7113 17.8142 36.6643 17.6497 36.6643 17.4382C36.6643 17.2972 36.6878 17.1562 36.7583 17.0387C36.8288 16.9211 36.9228 16.8036 37.0874 16.7331C37.2284 16.6391 37.4164 16.5686 37.6749 16.5451C37.9099 16.4981 38.1919 16.4746 38.5445 16.4746C38.8265 16.4746 39.085 16.4981 39.273 16.5451C39.4845 16.5921 39.649 16.6626 39.7901 16.7331C39.9311 16.8271 40.0251 16.9211 40.1191 17.0387C40.1896 17.1562 40.2601 17.3207 40.2836 17.4852L39.8136 17.4617Z" fill="white"/>
<path d="M45.3144 16.8975H42.1887V17.9786H44.9619V18.3311H42.1887V19.4827H45.3614V19.8822H41.7656V16.5215H45.3144V16.8975Z" fill="white"/>
<path d="M49.7042 17.4617C49.6337 17.2267 49.4927 17.0622 49.3047 16.9446C49.0932 16.8271 48.8112 16.7801 48.4116 16.7801C48.1531 16.7801 47.9416 16.8036 47.7771 16.8271C47.5891 16.8506 47.4481 16.8976 47.3306 16.9446C47.2131 16.9916 47.1426 17.0622 47.072 17.1562C47.025 17.2267 47.0015 17.3207 47.0015 17.4147C47.0015 17.5557 47.025 17.6497 47.0955 17.7202C47.1661 17.7907 47.2366 17.8612 47.3306 17.8847C47.4246 17.9317 47.5421 17.9552 47.6596 17.9552C47.7771 17.9552 47.8946 17.9787 48.0121 17.9787H48.1766C48.2236 17.9787 48.2941 17.9787 48.3411 17.9787C48.4116 17.9787 48.4822 17.9787 48.5527 17.9787H48.8347C49.0462 17.9787 49.2107 18.0022 49.3987 18.0257C49.5632 18.0492 49.7042 18.0962 49.8453 18.1667C49.9628 18.2372 50.0568 18.3312 50.1273 18.4488C50.1978 18.5663 50.2213 18.7073 50.2213 18.8718C50.2213 19.0363 50.1978 19.2008 50.1273 19.3418C50.0568 19.4828 49.9393 19.6003 49.7982 19.6944C49.6572 19.7884 49.4457 19.8589 49.2107 19.9294C48.9757 19.9764 48.6937 20.0234 48.3646 20.0234C48.2001 20.0234 48.0591 20.0234 47.9181 20.0234C47.8006 20.0234 47.6831 19.9999 47.5891 19.9999C47.4951 19.9999 47.4011 19.9764 47.3306 19.9529C47.2601 19.9294 47.1896 19.9059 47.119 19.8824C46.9075 19.7884 46.743 19.6708 46.6255 19.5063C46.508 19.3653 46.461 19.1773 46.4375 18.9188H46.9075C46.931 19.1773 47.072 19.3653 47.3071 19.4828C47.5421 19.6003 47.8946 19.6708 48.3646 19.6708C48.8347 19.6708 49.1872 19.6003 49.3987 19.4828C49.6337 19.3653 49.7512 19.1773 49.7512 18.9423C49.7512 18.8483 49.7277 18.7778 49.6807 18.6838C49.6337 18.5898 49.5632 18.5428 49.4927 18.4958C49.4457 18.4723 49.3752 18.4488 49.3047 18.4488C49.2342 18.4253 49.1402 18.4253 49.0462 18.4253C48.9522 18.4253 48.8582 18.4253 48.7642 18.4018C48.6702 18.4018 48.5997 18.4018 48.5292 18.4018C48.4116 18.4018 48.3176 18.4018 48.2236 18.4018C48.1296 18.4018 48.0356 18.4018 47.9416 18.4018C47.7771 18.4018 47.6126 18.3783 47.4481 18.3548C47.2836 18.3312 47.119 18.2842 47.0015 18.2137C46.8605 18.1432 46.743 18.0492 46.6725 17.9317C46.5785 17.8142 46.5315 17.6497 46.5315 17.4382C46.5315 17.2972 46.555 17.1562 46.6255 17.0387C46.696 16.9211 46.79 16.8036 46.9545 16.7331C47.0955 16.6391 47.2836 16.5686 47.5421 16.5451C47.7771 16.4981 48.0591 16.4746 48.4116 16.4746C48.6937 16.4746 48.9522 16.4981 49.1402 16.5451C49.3517 16.5921 49.5162 16.6626 49.6572 16.7331C49.7983 16.8271 49.8923 16.9211 49.9863 17.0387C50.0568 17.1562 50.1273 17.3207 50.1508 17.4852L49.7042 17.4617Z" fill="white"/>
</g>
<defs>
<clipPath id="clip0_27458_109406">
<rect width="68.9777" height="20" fill="white"/>
</clipPath>
</defs>
</svg>